<?xml version="1.0" encoding="utf-8" ?>
<!-- Svg Vector Icons : http://www.onlinewebfonts.com/icon -->
<!DOCTYPE svg PUBLIC "-//W3C//DTD SVG 1.1//EN" "http://www.w3.org/Graphics/SVG/1.1/DTD/svg11.dtd">
<svg version="1.1" xmlns="http://www.w3.org/2000/svg" xmlns:xlink="http://www.w3.org/1999/xlink" x="0px" y="0px" viewBox="0 0 1000 1000" enable-background="new 0 0 1000 1000" xml:space="preserve">
<metadata> Svg Vector Icons : http://www.onlinewebfonts.com/icon </metadata>
<g><g transform="translate(0.000000,511.000000) scale(0.100000,-0.100000)"><path d="M8301.5,4768.4c-94.1-58-108.1-114.1-100.1-424.4c6-270.2,6-276.3,62.1-330.3c44-44,74.1-56,146.1-56c78.1,0,100.1,10,150.1,66.1l58.1,64.1V4378c0,288.3,0,290.3-54.1,350.3C8489.7,4810.5,8391.6,4824.4,8301.5,4768.4z" /><path d="M9238.4,4414.1c-46-16-378.3-348.3-412.4-410.4c-46.1-88.1-34-154.1,40-228.2c56-56.1,84.1-68.1,152.1-68.1c80.1,0,96.1,10,276.2,186.2c104.1,100.1,200.2,212.2,216.2,246.2C9580.7,4304,9410.5,4476.1,9238.4,4414.1z" /><path d="M5645.1,4336c-176.2-36-396.3-142.1-518.5-250.2c-96.1-86.1-214.2-244.2-288.3-390.4l-42-84.1l-132.1,28c-238.2,50-588.5,88.1-810.7,88.1c-310.3,0-294.3,18-498.5-602.5l-164.2-492.5l-144.1-26c-80.1-14-246.2-56-370.3-92.1C1379.2,2124,426.3,1071,148-276.2c-42-204.2-48-282.2-48-690.6c2-422.4,6-480.4,54.1-712.6c326.3-1519.4,1515.4-2642.4,3040.8-2872.6c268.2-40,766.7-40,1032.9,0c1541.4,232.2,2744.5,1379.2,3048.8,2906.7c62.1,310.3,76.1,854.8,32,1169.1C7190.5,336.4,6844.2,1031,6275.7,1599.5c-148.1,150.1-180.2,192.2-170.2,226.2c8,22,90.1,222.2,182.2,444.4c182.2,438.4,200.2,516.5,122.1,598.6c-106.1,116.1-638.6,408.4-998.9,548.5l-194.2,76.1l44,80.1c150.1,268.3,422.4,390.4,824.8,368.3c238.2-14,482.4-78.1,930.9-250.2c322.3-122.1,906.8-376.3,1151.1-500.5c194.2-96.1,242.2-108.1,320.3-76.1c86.1,36,130.1,104.1,130.1,196.2c0,122.1-70.1,176.2-458.4,356.3c-706.6,330.3-1353.2,576.5-1733.6,660.6C6209.6,4376,5853.3,4378,5645.1,4336z M4432,3245c408.4-68.1,776.7-186.2,1145-368.3c256.3-126.1,398.4-208.2,398.4-230.2c0-22-222.2-548.5-240.2-566.5c-8-10-68.1,16-130.1,58.1c-180.2,114.1-538.5,280.3-772.7,356.3c-296.3,96.1-602.6,152.1-912.8,166.2c-146.1,6-266.2,14-266.2,14c0,14,200.2,596.5,210.2,614.6C3881.5,3317.1,4085.7,3301.1,4432,3245z M4213.8,2196c1008.9-160.1,1903.7-816.7,2362.2-1731.6c510.5-1018.9,436.4-2250.1-196.2-3194.9c-476.4-712.7-1187.1-1189.1-2045.9-1371.3c-286.3-62.1-888.8-66.1-1191.1-10C1345.1-3777.4,186.1-2017.8,594.5-246.2c138.1,598.6,414.4,1093,864.8,1541.4c466.4,466.4,996.9,754.7,1613.5,880.8C3367,2236.1,3907.5,2246.1,4213.8,2196z" /><path d="M3234.9,1773.7c-348.3-58.1-784.7-238.2-1101-454.4c-84.1-56-252.2-202.2-374.4-324.3C1263.1,500.5,996.8-82.1,940.8-798.7c-16-204.2,14-298.3,108.1-346.3c76.1-40,128.1-40,204.2,0c80.1,40,118.1,136.1,118.1,296.3c0,166.2,60.1,478.4,130.1,672.6c294.3,812.8,996.9,1395.3,1851.7,1533.4c94.1,16,222.2,28,286.3,28c146.1,0,228.2,42.1,266.2,134.1c40,92.1,20,172.1-56.1,236.2c-54,46-74.1,50-252.2,48C3491.1,1801.7,3327,1789.7,3234.9,1773.7z" /><path d="M9186.3,3509.3c-114.1-48.1-166.2-220.2-96.1-320.3c56.1-78.1,146.2-102.1,388.4-102.1c242.2,0,332.3,24,388.4,102.1c52,76.1,42,186.2-26,262.2l-58,66.1l-278.3,4C9352.5,3523.3,9208.3,3517.3,9186.3,3509.3z" /><path d="M7727,2898.7c-32-16-144.1-112.1-244.2-216.2c-174.2-178.2-186.2-196.2-186.2-272.2c0-64.1,14-98.1,58.1-148.1c50-56.1,72.1-66.1,152.1-66.1c90.1,0,94.1,4,300.3,212.2c196.2,196.2,210.2,218.2,210.2,290.3c0,96.1-44,164.1-132.1,200.2C7805.1,2932.7,7803.1,2932.7,7727,2898.7z" /><path d="M8924.1,2896.7c-66.1-28-126.1-118.1-126.1-190.2c0-24,12-66.1,28-96.1c44-82.1,378.3-400.4,436.4-414.4c76.1-20,186.2,22,228.2,84.1c18,30,34,88.1,34,132.1c0,72.1-14,92.1-208.2,284.3C9092.2,2918.7,9038.2,2946.7,8924.1,2896.7z" /><path d="M8265.5,2598.4l-68.1-68.1v-272.2c0-314.3,20-378.3,134.1-424.4c86.1-38,186.2-10,246.2,66.1c36,46,40,80.1,40,344.3c0,246.2-6,298.3-36,334.3C8493.7,2688.5,8363.6,2696.5,8265.5,2598.4z" /></g></g>
</svg>