<svg id="volume_off_24px" xmlns="http://www.w3.org/2000/svg" width="24" height="24" viewBox="0 0 24 24">
  <path id="icon_av_volume_off_24px" data-name="icon/av/volume_off_24px" d="M19.66,21.065h0L17.61,19.015A8.985,8.985,0,0,1,14,20.765V18.7a6.7,6.7,0,0,0,2.18-1.11L12,13.415v6.59L7,15H3v-6H7l.29-.3L2.93,4.345,4.34,2.935l16.73,16.72-1.41,1.41ZM7.83,13,10,15.175v-3.76l-1.29-1.29-.88.88H5v2Zm12.29,2.87h0L18.59,14.345A6.982,6.982,0,0,0,14,5.295V3.235a9,9,0,0,1,7,8.77,8.9,8.9,0,0,1-.879,3.869Zm-3.641-3.63h0L14,9.765V7.975a4.486,4.486,0,0,1,2.5,4.03,1.953,1.953,0,0,1-.02.238ZM12,7.765l0,0L10.12,5.885,12,4.005v3.76Z" fill="#090909"/>
</svg>
